<mxfile host="app.diagrams.net" modified="2021-08-11T09:58:35.340Z" agent="5.0 (Windows NT 10.0; Win64; x64) AppleWebKit/537.36 (KHTML, like Gecko) Chrome/92.0.4515.131 Safari/537.36" etag="Zl3WRSlPFEMBovJKiwzY" version="14.9.3" type="github">
  <diagram id="q1SIx5tXG3zLXe8Tmved" name="Page-1">
    <mxGraphModel dx="1038" dy="547" grid="1" gridSize="10" guides="1" tooltips="1" connect="1" arrows="1" fold="1" page="1" pageScale="1" pageWidth="850" pageHeight="1100" math="0" shadow="0">
      <root>
        <mxCell id="0" />
        <mxCell id="1" parent="0" />
        <mxCell id="Zm-OHrtPinIa40tijho3-140" value="" style="group" vertex="1" connectable="0" parent="1">
          <mxGeometry x="40" y="190" width="790" height="310" as="geometry" />
        </mxCell>
        <mxCell id="Zm-OHrtPinIa40tijho3-2" value="" style="endArrow=none;html=1;" edge="1" parent="Zm-OHrtPinIa40tijho3-140">
          <mxGeometry width="50" height="50" relative="1" as="geometry">
            <mxPoint x="210" y="133.45000000000005" as="sourcePoint" />
            <mxPoint x="250" y="133.45000000000005" as="targetPoint" />
          </mxGeometry>
        </mxCell>
        <mxCell id="Zm-OHrtPinIa40tijho3-3" value="" style="endArrow=none;html=1;" edge="1" parent="Zm-OHrtPinIa40tijho3-140">
          <mxGeometry width="50" height="50" relative="1" as="geometry">
            <mxPoint x="210" y="199.70999999999998" as="sourcePoint" />
            <mxPoint x="250" y="199.70999999999998" as="targetPoint" />
          </mxGeometry>
        </mxCell>
        <mxCell id="Zm-OHrtPinIa40tijho3-4" value="" style="endArrow=none;html=1;" edge="1" parent="Zm-OHrtPinIa40tijho3-140">
          <mxGeometry width="50" height="50" relative="1" as="geometry">
            <mxPoint x="90" y="133" as="sourcePoint" />
            <mxPoint x="130" y="133.45" as="targetPoint" />
          </mxGeometry>
        </mxCell>
        <mxCell id="Zm-OHrtPinIa40tijho3-6" value="" style="endArrow=none;html=1;" edge="1" parent="Zm-OHrtPinIa40tijho3-140">
          <mxGeometry width="50" height="50" relative="1" as="geometry">
            <mxPoint x="90" y="199.43" as="sourcePoint" />
            <mxPoint x="130" y="199.43" as="targetPoint" />
          </mxGeometry>
        </mxCell>
        <mxCell id="Zm-OHrtPinIa40tijho3-7" value="Q2" style="text;html=1;strokeColor=none;fillColor=none;align=center;verticalAlign=middle;whiteSpace=wrap;rounded=0;" vertex="1" parent="Zm-OHrtPinIa40tijho3-140">
          <mxGeometry x="200" y="116.89999999999998" width="40" height="16.55" as="geometry" />
        </mxCell>
        <mxCell id="Zm-OHrtPinIa40tijho3-8" value="CLK" style="text;html=1;strokeColor=none;fillColor=none;align=center;verticalAlign=middle;whiteSpace=wrap;rounded=0;" vertex="1" parent="Zm-OHrtPinIa40tijho3-140">
          <mxGeometry x="90" y="180" width="40" height="20" as="geometry" />
        </mxCell>
        <mxCell id="Zm-OHrtPinIa40tijho3-9" value="Q&#39;2" style="text;html=1;strokeColor=none;fillColor=none;align=center;verticalAlign=middle;whiteSpace=wrap;rounded=0;" vertex="1" parent="Zm-OHrtPinIa40tijho3-140">
          <mxGeometry x="200" y="180" width="40" height="20" as="geometry" />
        </mxCell>
        <mxCell id="Zm-OHrtPinIa40tijho3-10" value="D2" style="text;html=1;strokeColor=none;fillColor=none;align=center;verticalAlign=middle;whiteSpace=wrap;rounded=0;" vertex="1" parent="Zm-OHrtPinIa40tijho3-140">
          <mxGeometry x="100" y="120.35000000000002" width="30" height="13.1" as="geometry" />
        </mxCell>
        <mxCell id="Zm-OHrtPinIa40tijho3-113" value="" style="edgeStyle=orthogonalEdgeStyle;rounded=0;orthogonalLoop=1;jettySize=auto;html=1;" edge="1" parent="Zm-OHrtPinIa40tijho3-140" source="Zm-OHrtPinIa40tijho3-12">
          <mxGeometry relative="1" as="geometry">
            <mxPoint x="169" y="280" as="targetPoint" />
          </mxGeometry>
        </mxCell>
        <mxCell id="Zm-OHrtPinIa40tijho3-12" value="D-FF" style="rounded=0;whiteSpace=wrap;html=1;rotation=-90;" vertex="1" parent="Zm-OHrtPinIa40tijho3-140">
          <mxGeometry x="104.69999999999999" y="133.45" width="129.37" height="78.75" as="geometry" />
        </mxCell>
        <mxCell id="Zm-OHrtPinIa40tijho3-20" value="" style="endArrow=none;html=1;" edge="1" parent="Zm-OHrtPinIa40tijho3-140">
          <mxGeometry width="50" height="50" relative="1" as="geometry">
            <mxPoint x="490" y="133.45000000000005" as="sourcePoint" />
            <mxPoint x="530" y="133.45000000000005" as="targetPoint" />
          </mxGeometry>
        </mxCell>
        <mxCell id="Zm-OHrtPinIa40tijho3-21" value="" style="endArrow=none;html=1;" edge="1" parent="Zm-OHrtPinIa40tijho3-140">
          <mxGeometry width="50" height="50" relative="1" as="geometry">
            <mxPoint x="490" y="199.71000000000004" as="sourcePoint" />
            <mxPoint x="530" y="199.71000000000004" as="targetPoint" />
          </mxGeometry>
        </mxCell>
        <mxCell id="Zm-OHrtPinIa40tijho3-22" value="" style="endArrow=none;html=1;" edge="1" parent="Zm-OHrtPinIa40tijho3-140">
          <mxGeometry width="50" height="50" relative="1" as="geometry">
            <mxPoint x="370" y="133.45000000000005" as="sourcePoint" />
            <mxPoint x="410" y="133.45000000000005" as="targetPoint" />
          </mxGeometry>
        </mxCell>
        <mxCell id="Zm-OHrtPinIa40tijho3-24" value="" style="endArrow=none;html=1;" edge="1" parent="Zm-OHrtPinIa40tijho3-140">
          <mxGeometry width="50" height="50" relative="1" as="geometry">
            <mxPoint x="370" y="199.43000000000006" as="sourcePoint" />
            <mxPoint x="410" y="199.43000000000006" as="targetPoint" />
          </mxGeometry>
        </mxCell>
        <mxCell id="Zm-OHrtPinIa40tijho3-25" value="Q1" style="text;html=1;strokeColor=none;fillColor=none;align=center;verticalAlign=middle;whiteSpace=wrap;rounded=0;" vertex="1" parent="Zm-OHrtPinIa40tijho3-140">
          <mxGeometry x="490" y="113.44999999999999" width="40" height="20" as="geometry" />
        </mxCell>
        <mxCell id="Zm-OHrtPinIa40tijho3-26" value="CLK" style="text;html=1;strokeColor=none;fillColor=none;align=center;verticalAlign=middle;whiteSpace=wrap;rounded=0;" vertex="1" parent="Zm-OHrtPinIa40tijho3-140">
          <mxGeometry x="370" y="180" width="40" height="20" as="geometry" />
        </mxCell>
        <mxCell id="Zm-OHrtPinIa40tijho3-27" value="Q&#39;1" style="text;html=1;strokeColor=none;fillColor=none;align=center;verticalAlign=middle;whiteSpace=wrap;rounded=0;" vertex="1" parent="Zm-OHrtPinIa40tijho3-140">
          <mxGeometry x="490" y="180" width="40" height="20" as="geometry" />
        </mxCell>
        <mxCell id="Zm-OHrtPinIa40tijho3-28" value="D1" style="text;html=1;strokeColor=none;fillColor=none;align=center;verticalAlign=middle;whiteSpace=wrap;rounded=0;" vertex="1" parent="Zm-OHrtPinIa40tijho3-140">
          <mxGeometry x="370" y="113.44999999999999" width="40" height="20" as="geometry" />
        </mxCell>
        <mxCell id="Zm-OHrtPinIa40tijho3-111" value="" style="edgeStyle=orthogonalEdgeStyle;rounded=0;orthogonalLoop=1;jettySize=auto;html=1;" edge="1" parent="Zm-OHrtPinIa40tijho3-140" source="Zm-OHrtPinIa40tijho3-29">
          <mxGeometry relative="1" as="geometry">
            <mxPoint x="449" y="280" as="targetPoint" />
          </mxGeometry>
        </mxCell>
        <mxCell id="Zm-OHrtPinIa40tijho3-29" value="D-FF" style="rounded=0;whiteSpace=wrap;html=1;rotation=-90;" vertex="1" parent="Zm-OHrtPinIa40tijho3-140">
          <mxGeometry x="384.7" y="133.45" width="129.37" height="78.75" as="geometry" />
        </mxCell>
        <mxCell id="Zm-OHrtPinIa40tijho3-33" value="" style="endArrow=none;html=1;" edge="1" parent="Zm-OHrtPinIa40tijho3-140">
          <mxGeometry width="50" height="50" relative="1" as="geometry">
            <mxPoint x="720" y="133.45000000000005" as="sourcePoint" />
            <mxPoint x="760" y="133.45000000000005" as="targetPoint" />
          </mxGeometry>
        </mxCell>
        <mxCell id="Zm-OHrtPinIa40tijho3-35" value="" style="endArrow=none;html=1;" edge="1" parent="Zm-OHrtPinIa40tijho3-140">
          <mxGeometry width="50" height="50" relative="1" as="geometry">
            <mxPoint x="600" y="133.45000000000005" as="sourcePoint" />
            <mxPoint x="640" y="133.45000000000005" as="targetPoint" />
          </mxGeometry>
        </mxCell>
        <mxCell id="Zm-OHrtPinIa40tijho3-36" value="" style="endArrow=none;html=1;startArrow=none;" edge="1" source="Zm-OHrtPinIa40tijho3-43" parent="Zm-OHrtPinIa40tijho3-140">
          <mxGeometry width="50" height="50" relative="1" as="geometry">
            <mxPoint x="679.1" y="270" as="sourcePoint" />
            <mxPoint x="679.2" y="240" as="targetPoint" />
          </mxGeometry>
        </mxCell>
        <mxCell id="Zm-OHrtPinIa40tijho3-37" value="" style="endArrow=none;html=1;" edge="1" parent="Zm-OHrtPinIa40tijho3-140">
          <mxGeometry width="50" height="50" relative="1" as="geometry">
            <mxPoint x="600" y="199.43000000000006" as="sourcePoint" />
            <mxPoint x="640" y="199.43000000000006" as="targetPoint" />
          </mxGeometry>
        </mxCell>
        <mxCell id="Zm-OHrtPinIa40tijho3-38" value="Q0" style="text;html=1;strokeColor=none;fillColor=none;align=center;verticalAlign=middle;whiteSpace=wrap;rounded=0;" vertex="1" parent="Zm-OHrtPinIa40tijho3-140">
          <mxGeometry x="720" y="113.44999999999999" width="40" height="20" as="geometry" />
        </mxCell>
        <mxCell id="Zm-OHrtPinIa40tijho3-39" value="CLK" style="text;html=1;strokeColor=none;fillColor=none;align=center;verticalAlign=middle;whiteSpace=wrap;rounded=0;" vertex="1" parent="Zm-OHrtPinIa40tijho3-140">
          <mxGeometry x="600" y="180" width="40" height="20" as="geometry" />
        </mxCell>
        <mxCell id="Zm-OHrtPinIa40tijho3-40" value="Q&#39;0" style="text;html=1;strokeColor=none;fillColor=none;align=center;verticalAlign=middle;whiteSpace=wrap;rounded=0;" vertex="1" parent="Zm-OHrtPinIa40tijho3-140">
          <mxGeometry x="720" y="180" width="40" height="20" as="geometry" />
        </mxCell>
        <mxCell id="Zm-OHrtPinIa40tijho3-41" value="D0" style="text;html=1;strokeColor=none;fillColor=none;align=center;verticalAlign=middle;whiteSpace=wrap;rounded=0;" vertex="1" parent="Zm-OHrtPinIa40tijho3-140">
          <mxGeometry x="600" y="113.44999999999999" width="40" height="20" as="geometry" />
        </mxCell>
        <mxCell id="Zm-OHrtPinIa40tijho3-42" value="D-FF" style="rounded=0;whiteSpace=wrap;html=1;rotation=-90;" vertex="1" parent="Zm-OHrtPinIa40tijho3-140">
          <mxGeometry x="614.7" y="133.45" width="129.37" height="78.75" as="geometry" />
        </mxCell>
        <mxCell id="Zm-OHrtPinIa40tijho3-43" value="RST" style="text;html=1;strokeColor=none;fillColor=none;align=center;verticalAlign=middle;whiteSpace=wrap;rounded=0;rotation=-90;" vertex="1" parent="Zm-OHrtPinIa40tijho3-140">
          <mxGeometry x="650" y="240" width="40" height="20" as="geometry" />
        </mxCell>
        <mxCell id="Zm-OHrtPinIa40tijho3-44" value="" style="endArrow=none;html=1;" edge="1" target="Zm-OHrtPinIa40tijho3-43" parent="Zm-OHrtPinIa40tijho3-140">
          <mxGeometry width="50" height="50" relative="1" as="geometry">
            <mxPoint x="679.0999999999999" y="270" as="sourcePoint" />
            <mxPoint x="679.2" y="240" as="targetPoint" />
          </mxGeometry>
        </mxCell>
        <mxCell id="Zm-OHrtPinIa40tijho3-48" value="" style="endArrow=none;html=1;exitX=0;exitY=1;exitDx=0;exitDy=0;" edge="1" parent="Zm-OHrtPinIa40tijho3-140" source="Zm-OHrtPinIa40tijho3-56">
          <mxGeometry width="50" height="50" relative="1" as="geometry">
            <mxPoint x="120" y="280" as="sourcePoint" />
            <mxPoint x="680" y="280" as="targetPoint" />
          </mxGeometry>
        </mxCell>
        <mxCell id="Zm-OHrtPinIa40tijho3-53" value="" style="endArrow=none;html=1;" edge="1" parent="Zm-OHrtPinIa40tijho3-140">
          <mxGeometry width="50" height="50" relative="1" as="geometry">
            <mxPoint x="50" y="310" as="sourcePoint" />
            <mxPoint x="600" y="310" as="targetPoint" />
          </mxGeometry>
        </mxCell>
        <mxCell id="Zm-OHrtPinIa40tijho3-55" value="CLK" style="text;html=1;strokeColor=none;fillColor=none;align=center;verticalAlign=middle;whiteSpace=wrap;rounded=0;" vertex="1" parent="Zm-OHrtPinIa40tijho3-140">
          <mxGeometry x="50" y="290" width="40" height="20" as="geometry" />
        </mxCell>
        <mxCell id="Zm-OHrtPinIa40tijho3-56" value="RST" style="text;html=1;strokeColor=none;fillColor=none;align=center;verticalAlign=middle;whiteSpace=wrap;rounded=0;" vertex="1" parent="Zm-OHrtPinIa40tijho3-140">
          <mxGeometry x="50" y="260" width="40" height="20" as="geometry" />
        </mxCell>
        <mxCell id="Zm-OHrtPinIa40tijho3-92" value="" style="endArrow=none;html=1;" edge="1" parent="Zm-OHrtPinIa40tijho3-140" target="Zm-OHrtPinIa40tijho3-95">
          <mxGeometry width="50" height="50" relative="1" as="geometry">
            <mxPoint x="760" y="133.45" as="sourcePoint" />
            <mxPoint x="760" y="40" as="targetPoint" />
          </mxGeometry>
        </mxCell>
        <mxCell id="Zm-OHrtPinIa40tijho3-93" value="" style="endArrow=none;html=1;entryX=0.5;entryY=1;entryDx=0;entryDy=0;" edge="1" parent="Zm-OHrtPinIa40tijho3-140" target="Zm-OHrtPinIa40tijho3-96">
          <mxGeometry width="50" height="50" relative="1" as="geometry">
            <mxPoint x="529.1700000000001" y="133.45000000000005" as="sourcePoint" />
            <mxPoint x="529" y="40" as="targetPoint" />
          </mxGeometry>
        </mxCell>
        <mxCell id="Zm-OHrtPinIa40tijho3-94" value="" style="endArrow=none;html=1;entryX=0.398;entryY=1;entryDx=0;entryDy=0;entryPerimeter=0;" edge="1" parent="Zm-OHrtPinIa40tijho3-140" target="Zm-OHrtPinIa40tijho3-97">
          <mxGeometry width="50" height="50" relative="1" as="geometry">
            <mxPoint x="250.00000000000006" y="133.45000000000005" as="sourcePoint" />
            <mxPoint x="250" y="40" as="targetPoint" />
          </mxGeometry>
        </mxCell>
        <mxCell id="Zm-OHrtPinIa40tijho3-95" value="Q0(LSB)" style="text;html=1;strokeColor=none;fillColor=none;align=center;verticalAlign=middle;whiteSpace=wrap;rounded=0;" vertex="1" parent="Zm-OHrtPinIa40tijho3-140">
          <mxGeometry x="740" width="40" height="20" as="geometry" />
        </mxCell>
        <mxCell id="Zm-OHrtPinIa40tijho3-96" value="Q1" style="text;html=1;strokeColor=none;fillColor=none;align=center;verticalAlign=middle;whiteSpace=wrap;rounded=0;" vertex="1" parent="Zm-OHrtPinIa40tijho3-140">
          <mxGeometry x="510" width="40" height="20" as="geometry" />
        </mxCell>
        <mxCell id="Zm-OHrtPinIa40tijho3-97" value="Q2(MSB)" style="text;html=1;strokeColor=none;fillColor=none;align=center;verticalAlign=middle;whiteSpace=wrap;rounded=0;" vertex="1" parent="Zm-OHrtPinIa40tijho3-140">
          <mxGeometry x="234.07" width="40" height="20" as="geometry" />
        </mxCell>
        <mxCell id="Zm-OHrtPinIa40tijho3-66" value="" style="shape=xor;whiteSpace=wrap;html=1;" vertex="1" parent="Zm-OHrtPinIa40tijho3-140">
          <mxGeometry x="323.09090909090907" y="116.89999999999998" width="25.09090909090909" height="40" as="geometry" />
        </mxCell>
        <mxCell id="Zm-OHrtPinIa40tijho3-67" value="" style="ellipse;whiteSpace=wrap;html=1;aspect=fixed;" vertex="1" parent="Zm-OHrtPinIa40tijho3-140">
          <mxGeometry x="348.1818181818182" y="130.23333333333335" width="8.16" height="8.16" as="geometry" />
        </mxCell>
        <mxCell id="Zm-OHrtPinIa40tijho3-68" value="" style="endArrow=none;html=1;entryX=0;entryY=1;entryDx=0;entryDy=0;" edge="1" parent="Zm-OHrtPinIa40tijho3-140" target="Zm-OHrtPinIa40tijho3-28">
          <mxGeometry x="310" y="116.89999999999998" width="50" height="50" as="geometry">
            <mxPoint x="356.3418181818182" y="135.10666666666668" as="sourcePoint" />
            <mxPoint x="370" y="134.89999999999998" as="targetPoint" />
          </mxGeometry>
        </mxCell>
        <mxCell id="Zm-OHrtPinIa40tijho3-69" value="" style="endArrow=none;html=1;" edge="1" parent="Zm-OHrtPinIa40tijho3-140">
          <mxGeometry x="310" y="116.89999999999998" width="50" height="50" as="geometry">
            <mxPoint x="310" y="150.2333333333333" as="sourcePoint" />
            <mxPoint x="323.09090909090907" y="150.2333333333333" as="targetPoint" />
          </mxGeometry>
        </mxCell>
        <mxCell id="Zm-OHrtPinIa40tijho3-70" value="" style="endArrow=none;html=1;" edge="1" parent="Zm-OHrtPinIa40tijho3-140">
          <mxGeometry x="310" y="116.89999999999998" width="50" height="50" as="geometry">
            <mxPoint x="320.90909090909093" y="156.89999999999998" as="sourcePoint" />
            <mxPoint x="320.90909090909093" y="116.89999999999998" as="targetPoint" />
            <Array as="points">
              <mxPoint x="326.3636363636364" y="143.56666666666672" />
              <mxPoint x="326.3636363636364" y="136.89999999999998" />
              <mxPoint x="326.3636363636364" y="130.23333333333335" />
            </Array>
          </mxGeometry>
        </mxCell>
        <mxCell id="Zm-OHrtPinIa40tijho3-71" value="" style="endArrow=none;html=1;" edge="1" parent="Zm-OHrtPinIa40tijho3-140">
          <mxGeometry x="310" y="116.89999999999998" width="50" height="50" as="geometry">
            <mxPoint x="310" y="123.56666666666666" as="sourcePoint" />
            <mxPoint x="323.1290909090909" y="123.56666666666666" as="targetPoint" />
          </mxGeometry>
        </mxCell>
        <mxCell id="Zm-OHrtPinIa40tijho3-100" value="" style="endArrow=none;html=1;" edge="1" parent="Zm-OHrtPinIa40tijho3-140">
          <mxGeometry width="50" height="50" relative="1" as="geometry">
            <mxPoint x="310.64" y="90" as="sourcePoint" />
            <mxPoint x="530" y="90" as="targetPoint" />
          </mxGeometry>
        </mxCell>
        <mxCell id="Zm-OHrtPinIa40tijho3-106" value="" style="endArrow=classic;html=1;" edge="1" parent="Zm-OHrtPinIa40tijho3-140">
          <mxGeometry width="50" height="50" relative="1" as="geometry">
            <mxPoint x="310" y="90" as="sourcePoint" />
            <mxPoint x="310" y="130.23000000000002" as="targetPoint" />
          </mxGeometry>
        </mxCell>
        <mxCell id="Zm-OHrtPinIa40tijho3-108" value="" style="endArrow=classic;html=1;" edge="1" parent="Zm-OHrtPinIa40tijho3-140">
          <mxGeometry width="50" height="50" relative="1" as="geometry">
            <mxPoint x="679.19" y="239.76999999999998" as="sourcePoint" />
            <mxPoint x="679.19" y="280.00000000000006" as="targetPoint" />
          </mxGeometry>
        </mxCell>
        <mxCell id="Zm-OHrtPinIa40tijho3-109" value="" style="endArrow=none;html=1;" edge="1" parent="Zm-OHrtPinIa40tijho3-140">
          <mxGeometry width="50" height="50" relative="1" as="geometry">
            <mxPoint x="720" y="200" as="sourcePoint" />
            <mxPoint x="790" y="200" as="targetPoint" />
          </mxGeometry>
        </mxCell>
        <mxCell id="Zm-OHrtPinIa40tijho3-110" value="" style="endArrow=none;html=1;" edge="1" parent="Zm-OHrtPinIa40tijho3-140">
          <mxGeometry width="50" height="50" relative="1" as="geometry">
            <mxPoint x="790" y="200" as="sourcePoint" />
            <mxPoint x="790" y="80" as="targetPoint" />
          </mxGeometry>
        </mxCell>
        <mxCell id="Zm-OHrtPinIa40tijho3-112" value="RST" style="text;html=1;strokeColor=none;fillColor=none;align=center;verticalAlign=middle;whiteSpace=wrap;rounded=0;rotation=-90;" vertex="1" parent="Zm-OHrtPinIa40tijho3-140">
          <mxGeometry x="424.98" y="240" width="40" height="20" as="geometry" />
        </mxCell>
        <mxCell id="Zm-OHrtPinIa40tijho3-114" value="RST" style="text;html=1;strokeColor=none;fillColor=none;align=center;verticalAlign=middle;whiteSpace=wrap;rounded=0;rotation=-90;" vertex="1" parent="Zm-OHrtPinIa40tijho3-140">
          <mxGeometry x="140" y="240" width="40" height="20" as="geometry" />
        </mxCell>
        <mxCell id="Zm-OHrtPinIa40tijho3-115" value="" style="endArrow=none;html=1;" edge="1" parent="Zm-OHrtPinIa40tijho3-140">
          <mxGeometry width="50" height="50" relative="1" as="geometry">
            <mxPoint x="600" y="80" as="sourcePoint" />
            <mxPoint x="790" y="80" as="targetPoint" />
          </mxGeometry>
        </mxCell>
        <mxCell id="Zm-OHrtPinIa40tijho3-116" value="" style="endArrow=classic;html=1;" edge="1" parent="Zm-OHrtPinIa40tijho3-140">
          <mxGeometry width="50" height="50" relative="1" as="geometry">
            <mxPoint x="600" y="80" as="sourcePoint" />
            <mxPoint x="600" y="133.45" as="targetPoint" />
          </mxGeometry>
        </mxCell>
        <mxCell id="Zm-OHrtPinIa40tijho3-118" value="" style="endArrow=classic;html=1;" edge="1" parent="Zm-OHrtPinIa40tijho3-140">
          <mxGeometry width="50" height="50" relative="1" as="geometry">
            <mxPoint x="370.00000000000006" y="199.9999999999999" as="sourcePoint" />
            <mxPoint x="370" y="310" as="targetPoint" />
          </mxGeometry>
        </mxCell>
        <mxCell id="Zm-OHrtPinIa40tijho3-119" value="" style="endArrow=classic;html=1;" edge="1" parent="Zm-OHrtPinIa40tijho3-140">
          <mxGeometry width="50" height="50" relative="1" as="geometry">
            <mxPoint x="600" y="199.9999999999999" as="sourcePoint" />
            <mxPoint x="600" y="310" as="targetPoint" />
          </mxGeometry>
        </mxCell>
        <mxCell id="Zm-OHrtPinIa40tijho3-120" value="" style="endArrow=classic;html=1;" edge="1" parent="Zm-OHrtPinIa40tijho3-140">
          <mxGeometry width="50" height="50" relative="1" as="geometry">
            <mxPoint x="90" y="199.9999999999999" as="sourcePoint" />
            <mxPoint x="90" y="310" as="targetPoint" />
          </mxGeometry>
        </mxCell>
        <mxCell id="Zm-OHrtPinIa40tijho3-121" value="" style="endArrow=none;html=1;" edge="1" parent="Zm-OHrtPinIa40tijho3-140">
          <mxGeometry width="50" height="50" relative="1" as="geometry">
            <mxPoint x="290" y="65" as="sourcePoint" />
            <mxPoint x="760" y="65" as="targetPoint" />
          </mxGeometry>
        </mxCell>
        <mxCell id="Zm-OHrtPinIa40tijho3-122" value="" style="endArrow=classic;html=1;" edge="1" parent="Zm-OHrtPinIa40tijho3-140">
          <mxGeometry width="50" height="50" relative="1" as="geometry">
            <mxPoint x="30" y="80.57999999999998" as="sourcePoint" />
            <mxPoint x="30" y="120.35000000000002" as="targetPoint" />
          </mxGeometry>
        </mxCell>
        <mxCell id="Zm-OHrtPinIa40tijho3-123" value="" style="endArrow=classic;html=1;" edge="1" parent="Zm-OHrtPinIa40tijho3-140">
          <mxGeometry width="50" height="50" relative="1" as="geometry">
            <mxPoint x="290" y="150" as="sourcePoint" />
            <mxPoint x="309.2381068638393" y="150" as="targetPoint" />
          </mxGeometry>
        </mxCell>
        <mxCell id="Zm-OHrtPinIa40tijho3-124" value="" style="endArrow=none;html=1;" edge="1" parent="Zm-OHrtPinIa40tijho3-140">
          <mxGeometry width="50" height="50" relative="1" as="geometry">
            <mxPoint x="290" y="150" as="sourcePoint" />
            <mxPoint x="290" y="63" as="targetPoint" />
            <Array as="points">
              <mxPoint x="290" y="110" />
            </Array>
          </mxGeometry>
        </mxCell>
        <mxCell id="Zm-OHrtPinIa40tijho3-129" value="" style="endArrow=none;html=1;" edge="1" parent="Zm-OHrtPinIa40tijho3-140">
          <mxGeometry width="50" height="50" relative="1" as="geometry">
            <mxPoint x="30" y="80" as="sourcePoint" />
            <mxPoint x="250" y="80.44999999999999" as="targetPoint" />
          </mxGeometry>
        </mxCell>
        <mxCell id="Zm-OHrtPinIa40tijho3-130" value="" style="endArrow=none;html=1;" edge="1" parent="Zm-OHrtPinIa40tijho3-140">
          <mxGeometry width="50" height="50" relative="1" as="geometry">
            <mxPoint y="40" as="sourcePoint" />
            <mxPoint x="306.34000000000003" y="40.11000000000004" as="targetPoint" />
          </mxGeometry>
        </mxCell>
        <mxCell id="Zm-OHrtPinIa40tijho3-131" value="" style="endArrow=classic;html=1;" edge="1" parent="Zm-OHrtPinIa40tijho3-140">
          <mxGeometry width="50" height="50" relative="1" as="geometry">
            <mxPoint y="40" as="sourcePoint" />
            <mxPoint y="147.26999999999998" as="targetPoint" />
          </mxGeometry>
        </mxCell>
        <mxCell id="Zm-OHrtPinIa40tijho3-85" value="" style="shape=xor;whiteSpace=wrap;html=1;" vertex="1" parent="Zm-OHrtPinIa40tijho3-140">
          <mxGeometry x="43.09090909090912" y="114.31" width="25.090909090909097" height="40" as="geometry" />
        </mxCell>
        <mxCell id="Zm-OHrtPinIa40tijho3-86" value="" style="ellipse;whiteSpace=wrap;html=1;aspect=fixed;" vertex="1" parent="Zm-OHrtPinIa40tijho3-140">
          <mxGeometry x="68.18181818181813" y="127.64333333333332" width="6.800000000000001" height="6.800000000000001" as="geometry" />
        </mxCell>
        <mxCell id="Zm-OHrtPinIa40tijho3-87" value="" style="endArrow=none;html=1;" edge="1" parent="Zm-OHrtPinIa40tijho3-140">
          <mxGeometry x="30" y="114.31" width="50" height="50" as="geometry">
            <mxPoint x="76.34181818181821" y="132.51666666666665" as="sourcePoint" />
            <mxPoint x="90" y="132.31" as="targetPoint" />
          </mxGeometry>
        </mxCell>
        <mxCell id="Zm-OHrtPinIa40tijho3-88" value="" style="endArrow=none;html=1;" edge="1" parent="Zm-OHrtPinIa40tijho3-140">
          <mxGeometry x="30" y="114.31" width="50" height="50" as="geometry">
            <mxPoint y="148" as="sourcePoint" />
            <mxPoint x="43.09090909090912" y="147.64333333333332" as="targetPoint" />
          </mxGeometry>
        </mxCell>
        <mxCell id="Zm-OHrtPinIa40tijho3-89" value="" style="endArrow=none;html=1;" edge="1" parent="Zm-OHrtPinIa40tijho3-140">
          <mxGeometry x="30" y="114.31" width="50" height="50" as="geometry">
            <mxPoint x="40.90909090909088" y="154.31" as="sourcePoint" />
            <mxPoint x="40.90909090909088" y="114.31" as="targetPoint" />
            <Array as="points">
              <mxPoint x="46.363636363636374" y="140.9766666666667" />
              <mxPoint x="46.363636363636374" y="134.31" />
              <mxPoint x="46.363636363636374" y="127.64333333333332" />
            </Array>
          </mxGeometry>
        </mxCell>
        <mxCell id="Zm-OHrtPinIa40tijho3-90" value="" style="endArrow=none;html=1;" edge="1" parent="Zm-OHrtPinIa40tijho3-140">
          <mxGeometry x="30" y="114.31" width="50" height="50" as="geometry">
            <mxPoint x="30" y="120.97666666666669" as="sourcePoint" />
            <mxPoint x="43.129090909090905" y="120.97666666666669" as="targetPoint" />
          </mxGeometry>
        </mxCell>
        <mxCell id="Zm-OHrtPinIa40tijho3-132" value="" style="endArrow=classic;html=1;" edge="1" parent="Zm-OHrtPinIa40tijho3-140">
          <mxGeometry width="50" height="50" relative="1" as="geometry">
            <mxPoint x="530" y="50" as="sourcePoint" />
            <mxPoint x="360" y="50" as="targetPoint" />
          </mxGeometry>
        </mxCell>
        <mxCell id="Zm-OHrtPinIa40tijho3-72" value="" style="shape=xor;whiteSpace=wrap;html=1;rotation=-180;" vertex="1" parent="Zm-OHrtPinIa40tijho3-140">
          <mxGeometry x="321.34000000000003" y="20" width="25" height="40" as="geometry" />
        </mxCell>
        <mxCell id="Zm-OHrtPinIa40tijho3-74" value="" style="endArrow=none;html=1;" edge="1" parent="Zm-OHrtPinIa40tijho3-140">
          <mxGeometry x="326.34000000000003" y="19.43415094339622" width="25" height="37.735849056603776" as="geometry">
            <mxPoint x="370" y="30" as="sourcePoint" />
            <mxPoint x="341.34000000000003" y="30.00018867924527" as="targetPoint" />
          </mxGeometry>
        </mxCell>
        <mxCell id="Zm-OHrtPinIa40tijho3-75" value="" style="endArrow=none;html=1;" edge="1" parent="Zm-OHrtPinIa40tijho3-140">
          <mxGeometry x="326.34000000000003" y="22.26415094339623" width="25" height="37.735849056603776" as="geometry">
            <mxPoint x="321.34000000000003" y="40.37735849056605" as="sourcePoint" />
            <mxPoint x="306.34000000000003" y="40.37735849056605" as="targetPoint" />
          </mxGeometry>
        </mxCell>
        <mxCell id="Zm-OHrtPinIa40tijho3-133" value="" style="endArrow=none;html=1;exitX=0.175;exitY=0.25;exitDx=0;exitDy=0;exitPerimeter=0;" edge="1" parent="Zm-OHrtPinIa40tijho3-140" source="Zm-OHrtPinIa40tijho3-72">
          <mxGeometry width="50" height="50" relative="1" as="geometry">
            <mxPoint x="346.34" y="50" as="sourcePoint" />
            <mxPoint x="370" y="50" as="targetPoint" />
          </mxGeometry>
        </mxCell>
        <mxCell id="Zm-OHrtPinIa40tijho3-135" value="" style="endArrow=classic;html=1;" edge="1" parent="Zm-OHrtPinIa40tijho3-140">
          <mxGeometry width="50" height="50" relative="1" as="geometry">
            <mxPoint x="430" y="30" as="sourcePoint" />
            <mxPoint x="360" y="29.920000000000016" as="targetPoint" />
          </mxGeometry>
        </mxCell>
        <mxCell id="Zm-OHrtPinIa40tijho3-136" value="" style="endArrow=none;html=1;" edge="1" parent="Zm-OHrtPinIa40tijho3-140">
          <mxGeometry width="50" height="50" relative="1" as="geometry">
            <mxPoint x="430" y="65" as="sourcePoint" />
            <mxPoint x="430.02" y="30" as="targetPoint" />
          </mxGeometry>
        </mxCell>
      </root>
    </mxGraphModel>
  </diagram>
</mxfile>
